<svg width="13" height="12" viewBox="0 0 13 12" fill="none" xmlns="http://www.w3.org/2000/svg">
<g clip-path="url(#clip0_1_979)">
<path d="M11.06 11.04C11.5902 11.04 12.02 10.6102 12.02 10.08C12.02 9.5498 11.5902 9.12 11.06 9.12C10.5298 9.12 10.1 9.5498 10.1 10.08C10.1 10.6102 10.5298 11.04 11.06 11.04Z" fill="#F5F5F5"/>
<path d="M4.1 11.04C4.63019 11.04 5.06 10.6102 5.06 10.08C5.06 9.5498 4.63019 9.12 4.1 9.12C3.56981 9.12 3.14 9.5498 3.14 10.08C3.14 10.6102 3.56981 11.04 4.1 11.04Z" fill="#F5F5F5"/>
<path d="M11.78 7.92H4.28504L4.44512 7.66032C4.51376 7.54896 4.53392 7.41432 4.50104 7.2876L4.3448 6.68616L11.3007 6.32472C11.5645 6.31128 11.78 6.084 11.78 5.82V2.64C11.78 2.376 11.564 2.16 11.3 2.16H3.16856L3.07472 1.79928C3.04799 1.6964 2.98786 1.6053 2.90377 1.54028C2.81967 1.47526 2.71638 1.43999 2.61008 1.44H0.98C0.852696 1.44 0.730606 1.49057 0.640589 1.58059C0.550571 1.67061 0.5 1.7927 0.5 1.92C0.5 2.04731 0.550571 2.1694 0.640589 2.25941C0.730606 2.34943 0.852696 2.4 0.98 2.4H2.23904L3.52064 7.3308L3.01664 8.148C2.97186 8.22073 2.94729 8.30409 2.94548 8.38948C2.94366 8.47487 2.96467 8.5592 3.00632 8.63376C3.04791 8.70835 3.10865 8.77049 3.18227 8.81378C3.25588 8.85706 3.33972 8.87993 3.42512 8.88H11.78C11.9073 8.88 12.0294 8.82943 12.1194 8.73941C12.2094 8.6494 12.26 8.52731 12.26 8.4C12.26 8.2727 12.2094 8.15061 12.1194 8.06059C12.0294 7.97057 11.9073 7.92 11.78 7.92Z" fill="#F5F5F5"/>
</g>
<defs>
<clipPath id="clip0_1_979">
<rect width="12" height="12" fill="white" transform="translate(0.5)"/>
</clipPath>
</defs>
</svg>
