<svg width="32" height="32" viewBox="0 0 32 32" fill="none" xmlns="http://www.w3.org/2000/svg">
<path d="M9 8.5C8.72917 8.5 8.49479 8.40104 8.29688 8.20312C8.09896 8.00521 8 7.77083 8 7.5C8 7.26042 7.92708 7.04688 7.78125 6.85938C7.63542 6.67188 7.46354 6.51562 7.26562 6.39062C6.90104 6.14062 6.53125 5.89062 6.15625 5.64062C5.78125 5.39062 5.42708 5.11979 5.09375 4.82812C4.76042 4.53646 4.5 4.19792 4.3125 3.8125C4.125 3.42708 4.02083 2.98958 4 2.5C4 2.22917 4.09896 1.99479 4.29688 1.79688C4.49479 1.59896 4.72917 1.5 5 1.5C5.27083 1.5 5.50521 1.59896 5.70312 1.79688C5.90104 1.99479 6 2.22917 6 2.5C6 2.73958 6.07292 2.95312 6.21875 3.14062C6.36458 3.32812 6.53646 3.48438 6.73438 3.60938C7.08854 3.85938 7.45833 4.10938 7.84375 4.35938C8.22917 4.60938 8.58333 4.88021 8.90625 5.17188C9.22917 5.46354 9.48958 5.80208 9.6875 6.1875C9.88542 6.57292 9.98958 7.01042 10 7.5C10 7.77083 9.90104 8.00521 9.70312 8.20312C9.50521 8.40104 9.27083 8.5 9 8.5ZM16 8.5C15.7292 8.5 15.4948 8.40104 15.2969 8.20312C15.099 8.00521 15 7.77083 15 7.5C15 7.26042 14.9271 7.04688 14.7812 6.85938C14.6354 6.67188 14.4635 6.51562 14.2656 6.39062C13.901 6.14062 13.5312 5.89062 13.1562 5.64062C12.7812 5.39062 12.4271 5.11979 12.0938 4.82812C11.7604 4.53646 11.5 4.19792 11.3125 3.8125C11.125 3.42708 11.0208 2.98958 11 2.5C11 2.22917 11.099 1.99479 11.2969 1.79688C11.4948 1.59896 11.7292 1.5 12 1.5C12.2708 1.5 12.5052 1.59896 12.7031 1.79688C12.901 1.99479 13 2.22917 13 2.5C13 2.73958 13.0729 2.95312 13.2188 3.14062C13.3646 3.32812 13.5365 3.48438 13.7344 3.60938C14.0885 3.85938 14.4583 4.10938 14.8438 4.35938C15.2292 4.60938 15.5833 4.88021 15.9062 5.17188C16.2292 5.46354 16.4896 5.80208 16.6875 6.1875C16.8854 6.57292 16.9896 7.01042 17 7.5C17 7.77083 16.901 8.00521 16.7031 8.20312C16.5052 8.40104 16.2708 8.5 16 8.5ZM23 8.5C22.7292 8.5 22.4948 8.40104 22.2969 8.20312C22.099 8.00521 22 7.77083 22 7.5C22 7.26042 21.9271 7.04688 21.7812 6.85938C21.6354 6.67188 21.4635 6.51562 21.2656 6.39062C20.901 6.14062 20.5312 5.89062 20.1562 5.64062C19.7812 5.39062 19.4271 5.11979 19.0938 4.82812C18.7604 4.53646 18.5 4.19792 18.3125 3.8125C18.125 3.42708 18.0208 2.98958 18 2.5C18 2.22917 18.099 1.99479 18.2969 1.79688C18.4948 1.59896 18.7292 1.5 19 1.5C19.2708 1.5 19.5052 1.59896 19.7031 1.79688C19.901 1.99479 20 2.22917 20 2.5C20 2.73958 20.0729 2.95312 20.2188 3.14062C20.3646 3.32812 20.5365 3.48438 20.7344 3.60938C21.0885 3.85938 21.4583 4.10938 21.8438 4.35938C22.2292 4.60938 22.5833 4.88021 22.9062 5.17188C23.2292 5.46354 23.4896 5.80208 23.6875 6.1875C23.8854 6.57292 23.9896 7.01042 24 7.5C24 7.77083 23.901 8.00521 23.7031 8.20312C23.5052 8.40104 23.2708 8.5 23 8.5ZM25.0781 20C24.7344 20.7812 24.3073 21.5 23.7969 22.1562C23.2865 22.8125 22.7135 23.4271 22.0781 24H29V26C29 26.4688 28.9271 26.9375 28.7812 27.4062C28.6354 27.875 28.4271 28.3021 28.1562 28.6875C27.8854 29.0729 27.5469 29.3854 27.1406 29.625C26.7344 29.8646 26.2708 29.9896 25.75 30H3.25C2.72917 30 2.27083 29.8802 1.875 29.6406C1.47917 29.401 1.14062 29.0885 0.859375 28.7031C0.578125 28.3177 0.364583 27.8906 0.21875 27.4219C0.0729167 26.9531 0 26.4792 0 26V24H5.92188C4.69271 22.9271 3.73438 21.6823 3.04688 20.2656C2.35938 18.849 2.01042 17.3177 2 15.6719V10H27.0781C27.7656 10 28.4062 10.1302 29 10.3906C29.5938 10.651 30.1146 11.0104 30.5625 11.4688C31.0104 11.9271 31.3594 12.4583 31.6094 13.0625C31.8594 13.6667 31.9896 14.3125 32 15C32 15.6771 31.875 16.3177 31.625 16.9219C31.375 17.526 31.026 18.0573 30.5781 18.5156C30.1302 18.974 29.6094 19.3333 29.0156 19.5938C28.4219 19.8542 27.776 19.9896 27.0781 20H25.0781ZM26 12C26 12.4375 26.0052 12.875 26.0156 13.3125C26.026 13.75 26.0312 14.1927 26.0312 14.6406C26.0312 15.2135 26.0156 15.7812 25.9844 16.3438C25.9531 16.9062 25.8698 17.4583 25.7344 18H27.0781C27.4844 18 27.8646 17.9219 28.2188 17.7656C28.5729 17.6094 28.8854 17.3906 29.1562 17.1094C29.4271 16.8281 29.6302 16.5104 29.7656 16.1562C29.901 15.8021 29.9792 15.4167 30 15C30 14.5938 29.9271 14.2083 29.7812 13.8438C29.6354 13.4792 29.4271 13.1615 29.1562 12.8906C28.8854 12.6198 28.5781 12.4062 28.2344 12.25C27.8906 12.0938 27.5052 12.0104 27.0781 12H26ZM4 15.6719C4 16.5885 4.13542 17.4688 4.40625 18.3125C4.67708 19.1562 5.06771 19.9375 5.57812 20.6562C6.08854 21.375 6.68229 22.0156 7.35938 22.5781C8.03646 23.1406 8.79167 23.6146 9.625 24H18.375C19.1979 23.625 19.9531 23.1562 20.6406 22.5938C21.3281 22.0312 21.9219 21.3854 22.4219 20.6562C22.9219 19.9271 23.3073 19.1458 23.5781 18.3125C23.849 17.4792 23.9896 16.599 24 15.6719V12H4V15.6719ZM25.75 28C25.9688 28 26.1562 27.9271 26.3125 27.7812C26.4688 27.6354 26.599 27.4635 26.7031 27.2656C26.8073 27.0677 26.8802 26.849 26.9219 26.6094C26.9635 26.3698 26.9896 26.1667 27 26H2C2 26.1771 2.02083 26.3802 2.0625 26.6094C2.10417 26.8385 2.18229 27.0521 2.29688 27.25C2.41146 27.4479 2.54167 27.625 2.6875 27.7812C2.83333 27.9375 3.02083 28.0104 3.25 28H25.75Z" fill="#5A4B44"/>
</svg>
